<?xml version="1.0" encoding="UTF-8"?> <svg xmlns="http://www.w3.org/2000/svg" id="Vrstva_1" viewBox="0 0 244 87"><defs><style>.cls-1{fill:#ec6608;}.cls-2{fill:#ed6b10;}.cls-3{fill:#00507c;}</style></defs><path class="cls-1" d="M87.44,86.09c-1.75,0-3.13-.52-4.13-1.55-1-1.03-1.5-2.52-1.5-4.45s.49-3.37,1.46-4.42c.97-1.05,2.33-1.58,4.06-1.58.83,0,1.56.06,2.18.18.26.04.46.17.62.38.16.21.24.45.24.72v.51c0,.22-.09.4-.27.53-.18.13-.38.17-.59.11-.61-.16-1.23-.24-1.86-.24-.96,0-1.71.33-2.25.98-.54.65-.81,1.59-.81,2.83s.29,2.16.86,2.83,1.34,1.01,2.3,1.01c.64,0,1.26-.08,1.87-.24.21-.05.41-.02.6.11s.28.3.28.53v.48c0,.27-.08.51-.25.72-.17.21-.38.34-.63.38-.63.12-1.36.18-2.19.18Z"></path><path class="cls-1" d="M108.62,84.5c-.98,1.06-2.31,1.59-4,1.59s-3.02-.53-4-1.59c-.98-1.06-1.47-2.53-1.47-4.41s.49-3.35,1.47-4.41c.98-1.06,2.31-1.59,4-1.59s3.02.53,4,1.59c.98,1.06,1.47,2.53,1.47,4.41s-.49,3.35-1.47,4.41ZM107.31,80.09c0-2.51-.9-3.76-2.69-3.76s-2.69,1.25-2.69,3.76.9,3.76,2.69,3.76,2.69-1.25,2.69-3.76Z"></path><path class="cls-1" d="M120.66,85.03l-1.97-9.89c-.05-.23,0-.44.15-.62.15-.18.35-.27.58-.27h.93c.26,0,.49.08.69.26.2.17.32.38.35.64l1.09,8s0,.02.02.02.02,0,.02-.02l.99-8c.03-.26.14-.47.34-.64.19-.17.42-.26.67-.26h1.5c.26,0,.48.08.67.26.19.17.3.38.34.64l.99,8s0,.02.02.02.02,0,.02-.02l1.09-8c.03-.26.15-.47.35-.64.2-.17.43-.26.69-.26h.86c.24,0,.43.09.58.27s.2.39.16.62l-1.97,9.89c-.05.26-.18.47-.38.64-.2.17-.44.26-.7.26h-1.36c-.26,0-.48-.09-.68-.26s-.31-.38-.34-.64l-1.09-8s0-.02-.02-.02-.02,0-.02.02l-1.09,8c-.03.26-.15.47-.34.64s-.42.26-.68.26h-1.36c-.27,0-.5-.09-.71-.26s-.33-.38-.38-.64Z"></path><path class="cls-1" d="M149.77,84.5c-.98,1.06-2.31,1.59-4,1.59s-3.02-.53-4-1.59c-.98-1.06-1.47-2.53-1.47-4.41s.49-3.35,1.47-4.41c.98-1.06,2.32-1.59,4-1.59s3.02.53,4,1.59c.98,1.06,1.47,2.53,1.47,4.41s-.49,3.35-1.47,4.41ZM148.45,80.09c0-2.51-.9-3.76-2.69-3.76s-2.69,1.25-2.69,3.76.9,3.76,2.69,3.76,2.69-1.25,2.69-3.76Z"></path><path class="cls-1" d="M161.56,85.93c-.25,0-.46-.09-.64-.27s-.27-.39-.27-.64v-9.78c0-.27.09-.5.26-.69s.39-.3.65-.32c.95-.1,1.93-.14,2.93-.14,1.6,0,2.79.3,3.58.9.78.6,1.18,1.46,1.18,2.57,0,.71-.21,1.36-.62,1.93-.42.57-.96.98-1.63,1.22-.01,0-.02,0-.02.02,0,.02.01.03.03.03.52.3.96.93,1.33,1.89l.91,2.43c.07.2.05.39-.08.58s-.3.27-.51.27h-.98c-.28,0-.53-.08-.75-.24s-.38-.37-.46-.62l-.8-2.3c-.15-.45-.33-.75-.54-.91-.21-.16-.54-.24-.99-.24h-.67c-.09,0-.13.05-.13.14v3.26c0,.25-.09.46-.27.64s-.39.27-.64.27h-.85ZM163.32,76.39v3.07c0,.1.04.14.13.14h.77c.75,0,1.32-.16,1.71-.47.39-.31.59-.75.59-1.32,0-1.11-.73-1.66-2.19-1.66-.33,0-.62.02-.86.06-.1.02-.14.08-.14.18Z"></path><path class="cls-1" d="M179.65,85.93c-.25,0-.46-.09-.64-.27s-.27-.39-.27-.64v-9.86c0-.25.09-.46.27-.64s.39-.27.64-.27h.91c.25,0,.46.09.63.27.18.18.26.39.26.64v4.08s0,.02.02.02c.02,0,.03,0,.03-.02l2.72-4.22c.32-.51.78-.77,1.39-.77h1.34c.19,0,.33.08.42.26.08.17.07.34-.03.5l-3.25,4.74c-.05.07-.05.15,0,.22l3.42,5.22c.11.16.11.33.02.5-.09.17-.23.26-.42.26h-1.34c-.61,0-1.07-.26-1.38-.77l-2.9-4.71s-.01-.02-.03-.02c-.01,0-.02,0-.02.02v4.56c0,.25-.09.46-.26.64-.18.18-.39.27-.63.27h-.91Z"></path><path class="cls-1" d="M197.7,85.93c-.25,0-.46-.09-.63-.27s-.26-.39-.26-.64v-9.86c0-.25.09-.46.26-.64s.39-.27.63-.27h1.18c.25,0,.46.09.63.27s.26.39.26.64v9.86c0,.25-.09.46-.26.64s-.39.27-.63.27h-1.18Z"></path><path class="cls-1" d="M210.83,85.93c-.25,0-.46-.09-.64-.27s-.27-.39-.27-.64v-9.86c0-.25.09-.46.27-.64s.39-.27.64-.27h.78c.61,0,1.05.27,1.33.8l3.36,6.35s0,.02.02.02.02,0,.02-.02v-6.24c0-.25.09-.46.27-.64s.39-.27.64-.27h.78c.25,0,.46.09.64.27.18.18.27.39.27.64v9.86c0,.25-.09.46-.27.64-.18.18-.39.27-.64.27h-.78c-.61,0-1.05-.27-1.33-.8l-3.36-6.35s0-.02-.02-.02-.02,0-.02.02v6.24c0,.25-.09.46-.27.64-.18.18-.39.27-.64.27h-.78Z"></path><path class="cls-1" d="M234.27,86.09c-1.79,0-3.23-.53-4.3-1.59-1.08-1.06-1.62-2.53-1.62-4.41s.53-3.36,1.58-4.42,2.54-1.58,4.45-1.58c.79,0,1.55.06,2.29.19.26.04.47.17.63.38.17.21.25.45.25.71v.43c0,.22-.09.41-.27.54-.18.14-.38.18-.61.13-.66-.15-1.32-.22-1.97-.22-2.39,0-3.58,1.28-3.58,3.84,0,1.28.29,2.24.86,2.88s1.39.96,2.46.96c.33,0,.67-.04,1.01-.13.1-.02.14-.08.14-.18v-2.61c0-.08-.05-.13-.14-.13h-1.49c-.25,0-.46-.09-.64-.27-.18-.18-.27-.39-.27-.64v-.24c0-.25.09-.46.27-.64s.39-.27.64-.27h3.31c.25,0,.46.09.63.27s.26.39.26.64v4.78c0,.28-.08.53-.24.74s-.37.37-.62.44c-.96.26-1.97.38-3.02.38Z"></path><path class="cls-3" d="M28.87,53.6l10.75,2.74c-2.36,5.94-8.53,8.79-19.14,8.79-11.53,0-19.52-4.32-19.52-15.21s8-15.21,20.02-15.21,19.92,4.32,19.92,17.17H12.98c.98,3.14,4.27,3.93,7.5,3.93,4.27,0,5.99-.29,8.39-2.21ZM13.52,46h14.82c-1.32-2.65-4.27-2.94-7.41-2.94s-6.08.29-7.41,2.94Z"></path><path class="cls-3" d="M76.31,49.92c0-10.89,7.51-15.21,20.02-15.21s20.01,4.32,20.01,15.21-7.51,15.21-20.01,15.21-20.02-4.32-20.02-15.21ZM104.56,49.92c0-4.32-2.99-5.4-8.24-5.4s-8.24,1.08-8.24,5.4,2.99,5.39,8.24,5.39,8.24-1.08,8.24-5.39Z"></path><path class="cls-3" d="M158.08,25.39v39.25h-11.77v-4.02c-3.09,3.14-7.6,4.51-12.17,4.51-7.6,0-16.09-3.34-16.09-15.21s8.49-15.21,16.09-15.21c4.56,0,9.08,1.38,12.17,4.51v-13.83h11.77ZM146.31,49.92c0-4.32-2.99-5.4-8.24-5.4s-8.24,1.08-8.24,5.4,2.99,5.39,8.24,5.39,8.24-1.08,8.24-5.39Z"></path><path class="cls-3" d="M200.9,35.2v29.44h-11.77v-3.93c-3.53,2.45-8.05,4.42-14.23,4.42-6.62,0-14.13-2.06-14.13-12.71v-17.22h11.77v12.41c0,5.05,1.81,7.21,7.11,7.21,3.48,0,7.16-1.52,9.47-3.73v-15.89h11.77Z"></path><path class="cls-3" d="M214.88,54.48c0,1.67,1.57,2.31,8.68,2.31,6.57,0,7.7-.29,7.7-1.57,0-1.47-1.13-1.32-8.19-1.62-13.54-.54-19.48-1.57-19.48-9.07,0-8.39,9.08-9.81,19.97-9.81s18.49,1.42,18.49,9.91h-11.77c0-1.57-1.96-1.57-7.21-1.57-5.98,0-7.7,0-7.7,1.13,0,1.23,1.23,1.18,8.68,1.57,11.58.59,18.99,1.28,18.99,8.98,0,8.98-7.85,10.4-18.99,10.4s-20.95-1.42-20.95-10.65h11.77Z"></path><path class="cls-2" d="M54.6,31.16c-3.31-11.22-.34-21.86,14.68-28.4,9.06,8.86,10.5,17.42,7.59,25.1,1.88-.65,3.73-1.39,5.54-2.21.88-8.95-2.56-17.75-12.9-24.75-15.24,3.51-22.78,14.92-21.79,29.58,2.29.35,4.59.58,6.88.67Z"></path><path class="cls-2" d="M67.69,53.14c6.24-6.37,11.32-13.96,13.59-21.71-2.33.66-4.7,1.21-7.08,1.62-3,4.57-7.43,8.74-12.48,12.35-2.68-3.91-4.88-7.93-6.34-11.91-2.54-.32-5.05-.8-7.51-1.42.07.61.14,1.22.23,1.84.94,5.86,2.72,11.45,5.09,16.79-4.24,2.3-8.58,4.23-12.66,5.71l6.04,13.14c.54-.29.9-.51,1.32-.77,3.77-2.31,7.38-4.88,10.83-7.64,2.59,4.21,5.49,8.25,8.57,12.09l10.19-10.26c-.2-.15-.53-.44-.81-.68-3.19-2.83-6.19-5.91-8.98-9.17Z"></path></svg> 