<svg xmlns="http://www.w3.org/2000/svg" width="106" height="29.296" viewBox="0 0 106 29.296">
    <defs>
        <clipPath id="mdrfm89u4a">
            <path data-name="Rectangle 45496" style="fill:none" d="M0 0h106v29.296H0z"/>
        </clipPath>
    </defs>
    <g data-name="Group 7385" style="clip-path:url(#mdrfm89u4a)">
        <path data-name="Path 35843" d="M19.309 7.856V4.845c0-2.873-1.79-4.845-4.662-4.845S9.985 1.972 9.985 4.845v5.141H4.846C1.972 9.986 0 11.776 0 14.649s1.972 4.662 4.846 4.662h5.14v5.14c0 2.873 1.79 4.845 4.662 4.845a4.34 4.34 0 0 0 4.479-3.332h-4.479a1.514 1.514 0 0 1-1.512-1.512V16.16h-8.29a1.512 1.512 0 1 1 0-3.023h8.29V4.845a1.511 1.511 0 1 1 3.022 0v3.011z" style="fill:#00a03a"/>
        <path data-name="Path 35844" d="M27.583 11.927h-8.3v3.154h8.3a1.513 1.513 0 0 1 0 3.027h-8.3v7.649h3.154v-4.496h5.145c2.876 0 4.85-1.791 4.85-4.667s-1.974-4.667-4.85-4.667" transform="translate(-3.125 -1.933)" style="fill:#003e75"/>
        <path data-name="Path 35845" d="M39.144 17.157a7.71 7.71 0 0 1 4.078-1.078 6.45 6.45 0 0 1 1.828.212v2.693a5.99 5.99 0 0 0-2.385-.424 7.348 7.348 0 0 0-3.521.886v6.693h-2.962v-9.79h2.962z" transform="translate(-5.864 -2.606)" style="fill:#003e75"/>
        <path data-name="Path 35846" d="M49.607 21.285c0 1.712 1.385 2.846 3.712 2.846 2.29 0 3.713-1.135 3.713-2.846 0-1.75-1.4-2.905-3.731-2.905-2.27 0-3.694 1.155-3.694 2.905m10.541-.019c0 3.058-2.962 5.214-6.829 5.214-3.828 0-6.809-2.155-6.809-5.214 0-3.135 2.981-5.232 6.809-5.232 3.867 0 6.829 2.1 6.829 5.232" transform="translate(-7.538 -2.598)" style="fill:#003e75"/>
        <path data-name="Path 35847" d="M80.159 23.2a9.465 9.465 0 0 1-7.04 2.558c-5.674 0-9-3.058-9-7.175s3.4-7.137 9-7.137a9.67 9.67 0 0 1 6.828 2.386l-1.807 2.04a6.468 6.468 0 0 0-4.94-1.794c-3.866 0-5.79 1.846-5.79 4.5 0 2.616 1.9 4.559 5.79 4.559a6.341 6.341 0 0 0 5.116-2z" transform="translate(-10.392 -1.854)" style="fill:#003e75"/>
        <path data-name="Path 35848" d="M90.345 21.574c-1.616 0-2.963.365-2.963 1.443 0 .981 1.058 1.366 2.386 1.366a6.281 6.281 0 0 0 3.578-1.039v-1.366a11.19 11.19 0 0 0-3-.4m-5.406-4.236a11.689 11.689 0 0 1 5.46-1.308c3.577 0 5.9 1.327 5.9 4.328v5.771h-2.935v-.9a8.321 8.321 0 0 1-4.732 1.232c-2.289 0-4.387-.963-4.387-3.213 0-2.539 2.4-3.482 5.136-3.482a13.686 13.686 0 0 1 3.963.558v-.158c0-1.424-1.462-2.02-3.366-2.02a8.393 8.393 0 0 0-4.213 1.115z" transform="translate(-13.654 -2.598)" style="fill:#003e75"/>
        <path data-name="Path 35849" d="M104.2 17.157a7.707 7.707 0 0 1 4.077-1.078 6.447 6.447 0 0 1 1.828.212v2.693a5.988 5.988 0 0 0-2.386-.424 7.343 7.343 0 0 0-3.519.886v6.693h-2.963v-9.79h2.963z" transform="translate(-16.407 -2.606)" style="fill:#003e75"/>
        <path data-name="Path 35850" d="M114.89 20.054h6.41c-.231-1.232-1.481-1.924-3-1.924-1.789 0-2.944.732-3.4 1.924m-.154 1.712c.212 1.558 1.674 2.5 3.866 2.5a6.4 6.4 0 0 0 3.906-1.135l1.135 1.828a8.421 8.421 0 0 1-5.232 1.519c-4.078 0-6.848-2.135-6.848-5.193 0-3.021 2.654-5.251 6.732-5.251 2.944 0 6.252 1.923 5.733 5.732z" transform="translate(-18.082 -2.598)" style="fill:#003e75"/>
    </g>
</svg>
